<?xml version="1.0" encoding="UTF-8" standalone="no"?>
<svg xmlns:svg="http://www.w3.org/2000/svg" xmlns="http://www.w3.org/2000/svg" xmlns:xlink="http://www.w3.org/1999/xlink" version="1.0"
	width="288px" height="310px" id="svg2" viewBox="-72 -43 144 155">
  <defs id="defs4">
  </defs>
  	<g style="display:none;">
	  		<circle id="dot" cx="0" cy="0" r="5"  style="fill:#0000cc; stroke:#000000;stroke-width:1;" />
	  		<circle id="topdot" cx="0" cy="0" r="7"  style="fill:#0000cc; stroke:#000000;stroke-width:1;" />
  	</g>
	<g style="fill-opacity:1;fill-rule:evenodd; stroke:none;">
		<g id="topside" transform="scale(1,0.577)">
			<polygon points="-70,0 0,-70 70,0 0,70" style="fill:#ffffff;" />
	  		<circle cx="0"   cy="-40" r="7"  style="fill:#0000cc; stroke:#000000;stroke-width:1;" />
	  		<circle cx="-20" cy="-20" r="7"  style="fill:#0000cc; stroke:#000000;stroke-width:1;" />
	  		<circle cx="-40" cy="0"   r="7"  style="fill:#0000cc; stroke:#000000;stroke-width:1;" />
	  		<circle cx="0"   cy="40"  r="7"  style="fill:#0000cc; stroke:#000000;stroke-width:1;" />
	  		<circle cx="20"  cy="20"  r="7"  style="fill:#0000cc; stroke:#000000;stroke-width:1;" />
	  		<circle cx="40"  cy="0"   r="7"  style="fill:#0000cc; stroke:#000000;stroke-width:1;" />
		</g>
		<g id="leftside" transform="translate(-35,55.2) skewY(30)">
			<rect x="-35" y="-35" width="70" height="70" style="fill:#dddddd;" />
	  		<circle id="dot" cx="-20" cy="-20" r="5"  style="fill:#0000cc; stroke:#000000;stroke-width:1;" />
	  		<circle id="dot" cx="0"   cy="0"   r="5"  style="fill:#0000cc; stroke:#000000;stroke-width:1;" />
	  		<circle id="dot" cx="20"  cy="20"  r="5"  style="fill:#0000cc; stroke:#000000;stroke-width:1;" />
		</g>
		<g id="rightside" transform="translate(35,55.2) skewY(-30) " >
			<rect x="-35" y="-35" width="70" height="70" style="fill:#bbbbbb;" />
	  		<circle id="dot" cx="20"  cy="-20" r="5"  style="fill:#0000cc; stroke:#000000;stroke-width:1;" />
	  		<circle id="dot" cx="-20" cy="20"  r="5"  style="fill:#0000cc; stroke:#000000;stroke-width:1;" />
		</g>
	</g>
	<g  style="fill:none;stroke:#000000;stroke-width:1;stroke-linecap:round;stroke-linejoin:round;">
		<polyline  points="-70,0 0,-40.4 70,0" />
		<polyline points="0,40.4  70,0 70,70 0,110.4 0,40.4 -70,0 -70,70 0,110.4 " />
	</g>
</svg>
